<mxfile host="app.diagrams.net" modified="2023-09-15T00:09:05.872Z" agent="Mozilla/5.0 (Macintosh; Intel Mac OS X 10.15; rv:109.0) Gecko/20100101 Firefox/117.0" etag="g5IO5R4ZkpsYAM32Bt75" version="21.7.5" type="github">
  <diagram name="Page-1" id="EGawqVXien_poys0bBTz">
    <mxGraphModel dx="1524" dy="1193" grid="0" gridSize="10" guides="1" tooltips="1" connect="1" arrows="1" fold="1" page="0" pageScale="1" pageWidth="850" pageHeight="1100" math="0" shadow="0">
      <root>
        <mxCell id="0" />
        <mxCell id="1" parent="0" />
        <mxCell id="stgadCEIDZSZ7MvftzhB-1" style="edgeStyle=orthogonalEdgeStyle;rounded=0;orthogonalLoop=1;jettySize=auto;html=1;" edge="1" parent="1" source="Vhh1cMOaEA72a_BILJCU-1" target="Vhh1cMOaEA72a_BILJCU-4">
          <mxGeometry relative="1" as="geometry" />
        </mxCell>
        <mxCell id="Vhh1cMOaEA72a_BILJCU-1" value="&lt;b&gt;&lt;font style=&quot;font-size: 25px;&quot;&gt;Key Server&lt;/font&gt;&lt;/b&gt;" style="shadow=0;dashed=0;html=1;strokeColor=none;fillColor=#4495D1;labelPosition=center;verticalLabelPosition=bottom;verticalAlign=top;align=center;outlineConnect=0;shape=mxgraph.veeam.encryption_key;" parent="1" vertex="1">
          <mxGeometry x="730" y="160" width="260" height="200" as="geometry" />
        </mxCell>
        <mxCell id="Vhh1cMOaEA72a_BILJCU-4" value="&lt;font style=&quot;font-size: 23px;&quot;&gt;&lt;b&gt;Ansible Server&lt;/b&gt;&lt;/font&gt;" style="sketch=0;pointerEvents=1;shadow=0;dashed=0;html=1;strokeColor=none;fillColor=#005F4B;labelPosition=center;verticalLabelPosition=bottom;verticalAlign=top;align=center;outlineConnect=0;shape=mxgraph.veeam2.linux_server;" parent="1" vertex="1">
          <mxGeometry x="160" y="149" width="170" height="242" as="geometry" />
        </mxCell>
        <mxCell id="stgadCEIDZSZ7MvftzhB-7" style="edgeStyle=orthogonalEdgeStyle;rounded=0;orthogonalLoop=1;jettySize=auto;html=1;" edge="1" parent="1" source="stgadCEIDZSZ7MvftzhB-2" target="Vhh1cMOaEA72a_BILJCU-1">
          <mxGeometry relative="1" as="geometry" />
        </mxCell>
        <mxCell id="stgadCEIDZSZ7MvftzhB-8" value="SSH Key Copied" style="edgeLabel;html=1;align=center;verticalAlign=middle;resizable=0;points=[];" vertex="1" connectable="0" parent="stgadCEIDZSZ7MvftzhB-7">
          <mxGeometry x="0.0341" y="4" relative="1" as="geometry">
            <mxPoint as="offset" />
          </mxGeometry>
        </mxCell>
        <mxCell id="stgadCEIDZSZ7MvftzhB-2" value="&lt;font style=&quot;font-size: 19px;&quot;&gt;&lt;b&gt;Adi&#39;s Red Machine&lt;br&gt;&lt;/b&gt;&lt;/font&gt;" style="sketch=0;pointerEvents=1;shadow=0;dashed=0;html=1;strokeColor=none;fillColor=#005F4B;labelPosition=center;verticalLabelPosition=bottom;verticalAlign=top;align=center;outlineConnect=0;shape=mxgraph.veeam2.linux_server;" vertex="1" parent="1">
          <mxGeometry x="1215" y="139" width="170" height="242" as="geometry" />
        </mxCell>
        <mxCell id="stgadCEIDZSZ7MvftzhB-3" value="&lt;font style=&quot;font-size: 20px;&quot;&gt;&lt;b&gt;AD.pub&lt;/b&gt;&lt;/font&gt;" style="sketch=0;pointerEvents=1;shadow=0;dashed=0;html=1;strokeColor=none;labelPosition=center;verticalLabelPosition=bottom;verticalAlign=top;outlineConnect=0;align=center;shape=mxgraph.office.security.key_permissions;fillColor=#7FBA42;" vertex="1" parent="1">
          <mxGeometry x="1341" y="142" width="25" height="53" as="geometry" />
        </mxCell>
        <mxCell id="stgadCEIDZSZ7MvftzhB-4" value="" style="sketch=0;pointerEvents=1;shadow=0;dashed=0;html=1;strokeColor=none;labelPosition=center;verticalLabelPosition=bottom;verticalAlign=top;outlineConnect=0;align=center;shape=mxgraph.office.security.key_permissions;fillColor=#DA4026;" vertex="1" parent="1">
          <mxGeometry x="1257" y="147" width="25" height="53" as="geometry" />
        </mxCell>
        <mxCell id="stgadCEIDZSZ7MvftzhB-6" value="&lt;font style=&quot;font-size: 20px;&quot;&gt;&lt;b&gt;AD.pub&lt;/b&gt;&lt;/font&gt;" style="sketch=0;pointerEvents=1;shadow=0;dashed=0;html=1;strokeColor=none;labelPosition=center;verticalLabelPosition=bottom;verticalAlign=top;outlineConnect=0;align=center;shape=mxgraph.office.security.key_permissions;fillColor=#7FBA42;" vertex="1" parent="1">
          <mxGeometry x="945" y="281" width="25" height="53" as="geometry" />
        </mxCell>
        <mxCell id="stgadCEIDZSZ7MvftzhB-10" value="" style="sketch=0;pointerEvents=1;shadow=0;dashed=0;html=1;strokeColor=none;labelPosition=center;verticalLabelPosition=bottom;verticalAlign=top;outlineConnect=0;align=center;shape=mxgraph.office.security.key_permissions;fillColor=#DA4026;" vertex="1" parent="1">
          <mxGeometry x="748" y="165" width="25" height="53" as="geometry" />
        </mxCell>
        <mxCell id="stgadCEIDZSZ7MvftzhB-11" value="&lt;font style=&quot;font-size: 20px;&quot;&gt;&lt;b&gt;KS.pub&lt;/b&gt;&lt;/font&gt;" style="sketch=0;pointerEvents=1;shadow=0;dashed=0;html=1;strokeColor=none;labelPosition=center;verticalLabelPosition=bottom;verticalAlign=top;outlineConnect=0;align=center;shape=mxgraph.office.security.key_permissions;fillColor=#7FBA42;" vertex="1" parent="1">
          <mxGeometry x="790" y="167" width="25" height="53" as="geometry" />
        </mxCell>
        <mxCell id="stgadCEIDZSZ7MvftzhB-12" value="&lt;font style=&quot;font-size: 20px;&quot;&gt;&lt;b&gt;KS.pub&lt;/b&gt;&lt;/font&gt;" style="sketch=0;pointerEvents=1;shadow=0;dashed=0;html=1;strokeColor=none;labelPosition=center;verticalLabelPosition=bottom;verticalAlign=top;outlineConnect=0;align=center;shape=mxgraph.office.security.key_permissions;fillColor=#7FBA42;" vertex="1" parent="1">
          <mxGeometry x="296" y="152" width="25" height="53" as="geometry" />
        </mxCell>
      </root>
    </mxGraphModel>
  </diagram>
</mxfile>
